<svg xmlns="http://www.w3.org/2000/svg" xmlns:xlink="http://www.w3.org/1999/xlink" width="40" zoomAndPan="magnify" viewBox="0 0 30 30.000001" height="40" preserveAspectRatio="xMidYMid meet" version="1.0"><defs><clipPath id="ce5d7714da"><path d="M 0.484375 0 L 29.515625 0 L 29.515625 29.03125 L 0.484375 29.03125 Z M 0.484375 0 " clip-rule="nonzero"/></clipPath></defs><g clip-path="url(#ce5d7714da)"><path fill="#12609d" d="M 15 0 C 14.046875 0 13.101562 0.09375 12.167969 0.277344 C 11.234375 0.464844 10.324219 0.738281 9.445312 1.105469 C 8.5625 1.46875 7.726562 1.917969 6.933594 2.445312 C 6.144531 2.976562 5.410156 3.578125 4.734375 4.25 C 4.0625 4.925781 3.460938 5.660156 2.929688 6.453125 C 2.402344 7.242188 1.953125 8.082031 1.589844 8.960938 C 1.222656 9.839844 0.949219 10.75 0.761719 11.683594 C 0.578125 12.617188 0.484375 13.5625 0.484375 14.515625 C 0.484375 15.46875 0.578125 16.414062 0.761719 17.347656 C 0.949219 18.28125 1.222656 19.191406 1.589844 20.070312 C 1.953125 20.953125 2.402344 21.789062 2.929688 22.582031 C 3.460938 23.375 4.0625 24.105469 4.734375 24.78125 C 5.410156 25.453125 6.144531 26.054688 6.933594 26.585938 C 7.726562 27.117188 8.5625 27.5625 9.445312 27.925781 C 10.324219 28.292969 11.234375 28.566406 12.167969 28.753906 C 13.101562 28.9375 14.046875 29.03125 15 29.03125 C 15.953125 29.03125 16.898438 28.9375 17.832031 28.753906 C 18.765625 28.566406 19.675781 28.292969 20.554688 27.925781 C 21.4375 27.5625 22.273438 27.117188 23.066406 26.585938 C 23.855469 26.054688 24.589844 25.453125 25.265625 24.78125 C 25.9375 24.105469 26.539062 23.375 27.070312 22.582031 C 27.597656 21.789062 28.046875 20.953125 28.410156 20.070312 C 28.777344 19.191406 29.050781 18.28125 29.238281 17.347656 C 29.421875 16.414062 29.515625 15.46875 29.515625 14.515625 C 29.515625 13.5625 29.421875 12.617188 29.238281 11.683594 C 29.050781 10.75 28.777344 9.84375 28.410156 8.960938 C 28.046875 8.082031 27.597656 7.246094 27.070312 6.453125 C 26.539062 5.660156 25.9375 4.925781 25.265625 4.253906 C 24.589844 3.578125 23.855469 2.976562 23.0625 2.445312 C 22.273438 1.917969 21.433594 1.46875 20.554688 1.105469 C 19.675781 0.742188 18.765625 0.464844 17.832031 0.277344 C 16.898438 0.09375 15.953125 0 15 0 Z M 23.808594 20.800781 C 23.621094 21.109375 23.40625 21.402344 23.164062 21.671875 C 22.921875 21.941406 22.65625 22.1875 22.367188 22.410156 C 22.078125 22.628906 21.773438 22.820312 21.445312 22.984375 C 21.121094 23.144531 20.785156 23.277344 20.433594 23.375 C 20.082031 23.472656 19.726562 23.535156 19.367188 23.566406 C 19.003906 23.597656 18.640625 23.59375 18.28125 23.554688 C 17.917969 23.519531 17.5625 23.445312 17.214844 23.339844 C 16.867188 23.238281 16.53125 23.101562 16.210938 22.929688 C 14.152344 21.855469 12.300781 20.496094 10.660156 18.855469 C 9.015625 17.210938 7.65625 15.351562 6.582031 13.285156 C 6.414062 12.964844 6.277344 12.628906 6.171875 12.28125 C 6.070312 11.9375 5.996094 11.582031 5.960938 11.222656 C 5.921875 10.859375 5.921875 10.5 5.953125 10.136719 C 5.984375 9.777344 6.046875 9.421875 6.148438 9.070312 C 6.246094 8.722656 6.375 8.386719 6.539062 8.0625 C 6.699219 7.738281 6.890625 7.429688 7.113281 7.144531 C 7.332031 6.855469 7.578125 6.589844 7.847656 6.347656 C 8.121094 6.105469 8.410156 5.894531 8.722656 5.707031 C 8.929688 5.582031 9.15625 5.5 9.394531 5.464844 C 9.636719 5.429688 9.875 5.441406 10.109375 5.5 C 10.347656 5.558594 10.5625 5.660156 10.757812 5.804688 C 10.953125 5.949219 11.113281 6.125 11.238281 6.332031 L 12.417969 8.304688 C 12.5625 8.550781 12.644531 8.8125 12.667969 9.09375 C 12.691406 9.371094 12.652344 9.644531 12.550781 9.90625 C 12.449219 10.171875 12.292969 10.398438 12.089844 10.589844 C 11.882812 10.785156 11.644531 10.921875 11.375 11.003906 C 11.191406 11.058594 11.027344 11.152344 10.886719 11.28125 C 10.742188 11.410156 10.636719 11.5625 10.566406 11.742188 C 10.496094 11.921875 10.46875 12.105469 10.480469 12.296875 C 10.496094 12.488281 10.550781 12.667969 10.648438 12.832031 C 11.394531 14.070312 12.273438 15.199219 13.292969 16.222656 C 14.316406 17.246094 15.449219 18.128906 16.691406 18.871094 C 17.03125 19.078125 17.382812 19.109375 17.753906 18.972656 C 18.167969 18.816406 18.425781 18.523438 18.527344 18.089844 C 18.617188 17.828125 18.757812 17.597656 18.953125 17.398438 C 19.148438 17.199219 19.375 17.050781 19.632812 16.957031 C 19.894531 16.859375 20.160156 16.824219 20.4375 16.847656 C 20.714844 16.875 20.972656 16.957031 21.210938 17.097656 L 23.183594 18.277344 C 23.390625 18.402344 23.566406 18.5625 23.710938 18.761719 C 23.855469 18.957031 23.957031 19.171875 24.015625 19.410156 C 24.074219 19.644531 24.085938 19.882812 24.050781 20.125 C 24.015625 20.363281 23.933594 20.589844 23.808594 20.800781 Z M 23.808594 20.800781 " fill-opacity="1" fill-rule="nonzero"/></g></svg>