<svg xmlns="http://www.w3.org/2000/svg" xmlns:xlink="http://www.w3.org/1999/xlink" width="40" zoomAndPan="magnify" viewBox="0 0 30 30.000001" height="40" preserveAspectRatio="xMidYMid meet" version="1.0"><defs><clipPath id="2a54c38c0e"><path d="M 0.484375 0.0078125 L 29.511719 0.0078125 L 29.511719 29.03125 L 0.484375 29.03125 Z M 0.484375 0.0078125 " clip-rule="nonzero"/></clipPath></defs><g clip-path="url(#2a54c38c0e)"><path fill="#12609d" d="M 28.695312 19.296875 C 29.21875 17.789062 29.511719 16.199219 29.511719 14.527344 C 29.511719 12.855469 29.21875 11.242188 28.695312 9.757812 C 28.671875 9.714844 28.671875 9.675781 28.652344 9.632812 C 26.644531 4.027344 21.269531 0.0117188 14.992188 0.0117188 C 8.71875 0.0117188 3.34375 4.027344 1.335938 9.613281 C 1.316406 9.652344 1.292969 9.695312 1.292969 9.738281 C 0.769531 11.242188 0.476562 12.855469 0.476562 14.527344 C 0.476562 16.199219 0.769531 17.8125 1.292969 19.296875 C 1.316406 19.335938 1.316406 19.378906 1.335938 19.421875 C 3.34375 25.027344 8.71875 29.023438 14.992188 29.023438 C 21.269531 29.023438 26.644531 25.007812 28.652344 19.421875 C 28.671875 19.378906 28.671875 19.335938 28.695312 19.296875 Z M 14.992188 26.953125 C 14.449219 26.953125 13.550781 25.949219 12.796875 23.710938 C 12.441406 22.621094 12.148438 21.386719 11.941406 20.050781 L 18.027344 20.050781 C 17.816406 21.386719 17.523438 22.644531 17.167969 23.710938 C 16.4375 25.949219 15.539062 26.953125 14.992188 26.953125 Z M 11.6875 17.976562 C 11.585938 16.871094 11.542969 15.71875 11.542969 14.527344 C 11.542969 13.335938 11.605469 12.183594 11.6875 11.074219 L 18.277344 11.074219 C 18.382812 12.183594 18.425781 13.335938 18.425781 14.527344 C 18.425781 15.71875 18.363281 16.871094 18.277344 17.976562 Z M 2.546875 14.527344 C 2.546875 13.335938 2.714844 12.164062 3.03125 11.074219 L 9.597656 11.074219 C 9.492188 12.207031 9.449219 13.375 9.449219 14.527344 C 9.449219 15.675781 9.492188 16.847656 9.597656 17.976562 L 3.050781 17.976562 C 2.738281 16.871094 2.546875 15.71875 2.546875 14.527344 Z M 14.992188 2.082031 C 15.539062 2.082031 16.4375 3.085938 17.191406 5.324219 C 17.546875 6.410156 17.839844 7.644531 18.046875 8.984375 L 11.941406 8.984375 C 12.148438 7.625 12.441406 6.390625 12.796875 5.324219 C 13.550781 3.085938 14.429688 2.082031 14.992188 2.082031 Z M 20.371094 11.074219 L 26.9375 11.074219 C 27.25 12.164062 27.417969 13.335938 27.417969 14.527344 C 27.417969 15.71875 27.25 16.890625 26.9375 17.976562 L 20.371094 17.976562 C 20.472656 16.847656 20.515625 15.675781 20.515625 14.527344 C 20.515625 13.355469 20.472656 12.207031 20.371094 11.074219 Z M 26.121094 8.984375 L 20.140625 8.984375 C 19.761719 6.433594 19.136719 4.152344 18.234375 2.519531 C 21.6875 3.460938 24.554688 5.847656 26.121094 8.984375 Z M 11.730469 2.519531 C 10.832031 4.152344 10.203125 6.433594 9.828125 8.984375 L 3.867188 8.984375 C 5.433594 5.847656 8.28125 3.460938 11.730469 2.519531 Z M 3.867188 20.050781 L 9.847656 20.050781 C 10.226562 22.601562 10.851562 24.878906 11.75 26.511719 C 8.28125 25.59375 5.433594 23.207031 3.867188 20.050781 Z M 18.234375 26.535156 C 19.136719 24.902344 19.761719 22.621094 20.140625 20.070312 L 26.121094 20.070312 C 24.554688 23.207031 21.6875 25.59375 18.234375 26.535156 Z M 18.234375 26.535156 " fill-opacity="1" fill-rule="nonzero"/></g></svg>