<svg xmlns="http://www.w3.org/2000/svg" xmlns:xlink="http://www.w3.org/1999/xlink" width="40" zoomAndPan="magnify" viewBox="0 0 30 30.000001" height="40" preserveAspectRatio="xMidYMid meet" version="1.0"><defs><clipPath id="cff7a68c97"><path d="M 0.484375 0 L 29.515625 0 L 29.515625 29 L 0.484375 29 Z M 0.484375 0 " clip-rule="nonzero"/></clipPath></defs><g clip-path="url(#cff7a68c97)"><path fill="#12609d" d="M 25.867188 0.0585938 L 4.125 0.0585938 C 2.125 0.0585938 0.484375 1.695312 0.484375 3.6875 L 0.484375 25.328125 C 0.484375 27.316406 2.125 28.976562 4.125 28.976562 L 14.941406 28.976562 L 14.941406 18.996094 L 11.371094 18.996094 L 11.371094 14.574219 L 14.941406 14.574219 L 14.941406 10.898438 C 14.941406 7.910156 17.429688 5.558594 20.433594 5.558594 L 24.128906 5.558594 L 24.128906 10.035156 L 22.242188 10.035156 C 21.242188 10.035156 20.445312 9.90625 20.445312 10.898438 L 20.445312 14.574219 L 24.960938 14.574219 L 23.148438 18.996094 L 20.445312 18.996094 L 20.445312 28.976562 L 25.867188 28.976562 C 27.867188 28.976562 29.515625 27.316406 29.515625 25.328125 L 29.515625 3.6875 C 29.515625 1.695312 27.867188 0.0585938 25.867188 0.0585938 Z M 25.867188 0.0585938 " fill-opacity="1" fill-rule="nonzero"/></g></svg>